name D:\school\WTK\thesis\model\3dpredictsim\Results\MidTarsalJoint\Fal_s1_bCst_PF_Natali2010_ls150_MT_k30_d020_MTP_T5_ig24.mot
datacolumns 128
datarows 4
range 1.16241493 1.19728738
endheader
time	pelvis_tilt	pelvis_list	pelvis_rotation	pelvis_tx	pelvis_ty	pelvis_tz	hip_flexion_l	hip_adduction_l	hip_rotation_l	hip_flexion_r	hip_adduction_r	hip_rotation_r	knee_angle_l	knee_angle_r	ankle_angle_l	ankle_angle_r	subtalar_angle_l	subtalar_angle_r	mtj_angle_l	mtj_angle_r	mtp_angle_l	mtp_angle_r	lumbar_extension	lumbar_bending	lumbar_rotation	arm_flex_l	arm_add_l	arm_rot_l	arm_flex_r	arm_add_r	arm_rot_r	elbow_flex_l	elbow_flex_r	pro_sup_l	pro_sup_r	glut_med1_l/activation	glut_med2_l/activation	glut_med3_l/activation	glut_min1_l/activation	glut_min2_l/activation	glut_min3_l/activation	semimem_l/activation	semiten_l/activation	bifemlh_l/activation	bifemsh_l/activation	sar_l/activation	add_long_l/activation	add_brev_l/activation	add_mag1_l/activation	add_mag2_l/activation	add_mag3_l/activation	tfl_l/activation	pect_l/activation	grac_l/activation	glut_max1_l/activation	glut_max2_l/activation	glut_max3_l/activation	iliacus_l/activation	psoas_l/activation	quad_fem_l/activation	gem_l/activation	peri_l/activation	rect_fem_l/activation	vas_med_l/activation	vas_int_l/activation	vas_lat_l/activation	med_gas_l/activation	lat_gas_l/activation	soleus_l/activation	tib_post_l/activation	flex_dig_l/activation	flex_hal_l/activation	tib_ant_l/activation	per_brev_l/activation	per_long_l/activation	per_tert_l/activation	ext_dig_l/activation	ext_hal_l/activation	ercspn_l/activation	intobl_l/activation	extobl_l/activation	glut_med1_r/activation	glut_med2_r/activation	glut_med3_r/activation	glut_min1_r/activation	glut_min2_r/activation	glut_min3_r/activation	semimem_r/activation	semiten_r/activation	bifemlh_r/activation	bifemsh_r/activation	sar_r/activation	add_long_r/activation	add_brev_r/activation	add_mag1_r/activation	add_mag2_r/activation	add_mag3_r/activation	tfl_r/activation	pect_r/activation	grac_r/activation	glut_max1_r/activation	glut_max2_r/activation	glut_max3_r/activation	iliacus_r/activation	psoas_r/activation	quad_fem_r/activation	gem_r/activation	peri_r/activation	rect_fem_r/activation	vas_med_r/activation	vas_int_r/activation	vas_lat_r/activation	med_gas_r/activation	lat_gas_r/activation	soleus_r/activation	tib_post_r/activation	flex_dig_r/activation	flex_hal_r/activation	tib_ant_r/activation	per_brev_r/activation	per_long_r/activation	per_tert_r/activation	ext_dig_r/activation	ext_hal_r/activation	ercspn_r/activation	intobl_r/activation	extobl_r/activation	
          1.16241493	         -2.93000994	         -2.37568316	          6.16664806	          1.45301867	          0.91611023	         -0.00195701	        -16.07902277	         -1.75541821	          6.21914785	         30.04060357	          3.33229133	         -1.76861243	         -9.45803584	        -10.97632159	         -6.60561647	          4.70079743	         12.06092751	         -5.40674502	         15.52131341	         -0.13484330	         -2.34639256	         -0.73997445	         -1.69365660	          0.38617849	         -2.19723796	          4.51730815	        -13.45250826	         14.93308727	         -6.18822378	        -13.53276885	          4.90963040	         36.52560905	         18.22471718	         86.51662706	         86.51662706	          0.25714108	          0.10723669	          0.08168773	          0.26771427	          0.20553151	          0.12120215	          0.05000059	          0.05000013	          0.05000008	          0.05384235	          0.12109562	          0.05331880	          0.05000052	          0.05000029	          0.05000055	          0.05000022	          0.31546645	          0.07119391	          0.05000109	          0.05000119	          0.05000067	          0.05000043	          0.46458381	          0.64726881	          0.05000013	          0.05000027	          0.06754916	          0.27178743	          0.05000019	          0.05000015	          0.05000014	          0.32255598	          0.43417557	          0.42028223	          0.27174212	          0.22627347	          0.29740483	          0.05000002	          0.05968867	          0.16136659	          0.05000016	          0.05000003	          0.05000012	          0.05000000	          0.05000002	          0.05000007	          0.05968674	          0.05968674	          0.05000009	          0.05968679	          0.05968677	          0.05109455	          0.22661402	          0.07104690	          0.13682327	          0.05968594	          0.05000015	          0.14469304	          0.26901100	          0.15861581	          0.17191484	          0.11318949	          0.05000006	          0.06442324	          0.13326594	          0.05000052	          0.06687431	          0.16475668	          0.05000028	          0.05000007	          0.17542042	          0.26972985	          0.11818255	          0.05000007	          0.10134794	          0.09934426	          0.09057928	          0.06233211	          0.06356617	          0.05968678	          0.05000001	          0.05000025	          0.05000014	          0.47699074	          0.24286865	          0.16541923	          0.20020595	          0.43713904	          0.20056624	          0.05578856	          0.11938020	          0.10446303	
          1.17403908	         -2.92896713	         -2.48346406	          6.47465298	          1.47035218	          0.91477742	         -0.00174393	        -16.01338165	         -2.08383037	          5.95931801	         29.45668127	          3.71334639	         -1.52135645	        -11.31701791	        -11.31337192	         -6.94390289	          3.93994552	         12.89368417	         -5.74363196	         14.74534360	         -0.06558557	         -1.96344202	         -0.76475592	         -1.50088199	          0.58779110	         -2.26674304	          4.31550691	        -13.46015049	         15.36636280	         -7.07151229	        -13.53462266	          4.84181212	         37.69321167	         17.73026857	         86.51662706	         86.51662706	          0.21540873	          0.08983287	          0.06843034	          0.22426601	          0.17217507	          0.10153183	          0.05000095	          0.05000020	          0.05000023	          0.05000008	          0.10144270	          0.13082005	          0.05967419	          0.05968739	          0.05968307	          0.05968690	          0.26426832	          0.05968990	          0.05002422	          0.05000132	          0.05000086	          0.05000106	          0.39087914	          0.61227170	          0.05000065	          0.05012537	          0.05968645	          0.26751280	          0.05000129	          0.12286416	          0.12790475	          0.27051818	          0.38012898	          0.39867888	          0.25149504	          0.18958738	          0.26863107	          0.05000003	          0.05000164	          0.18307160	          0.05000009	          0.05000002	          0.05000013	          0.05200789	          0.06902385	          0.05968680	          0.05000000	          0.05000001	          0.08032571	          0.05000001	          0.05000002	          0.05000002	          0.18983602	          0.05951646	          0.11461773	          0.05000005	          0.05025227	          0.12121048	          0.28028025	          0.31257504	          0.21601656	          0.11821424	          0.05000014	          0.07124997	          0.13947144	          0.05000047	          0.09322902	          0.14406783	          0.05000008	          0.06261736	          0.50451865	          0.22595442	          0.09900229	          0.05968696	          0.11453871	          0.11669937	          0.10076116	          0.05968689	          0.05969195	          0.05000002	          0.05968693	          0.05000400	          0.05968690	          0.42558041	          0.24778391	          0.19910560	          0.16771386	          0.38649905	          0.16801563	          0.05000000	          0.10000555	          0.08750934	
          1.18566323	         -2.92356670	         -2.59083542	          6.75044244	          1.48801799	          0.91355370	         -0.00154886	        -15.88861562	         -2.40989583	          5.70030140	         28.76096651	          4.01089495	         -1.24783917	        -13.26069783	        -11.94661499	         -7.37511817	          3.29232970	         13.62975236	         -6.09560416	         13.68727711	         -0.32471807	         -1.41087419	         -0.79050190	         -1.28515689	          0.79660474	         -2.32250146	          4.03761463	        -13.46351064	         15.73428831	         -7.98350318	        -13.53927381	          4.84342192	         38.81899797	         17.27980810	         86.51662706	         86.51662706	          0.30878230	          0.07525358	          0.05732457	          0.27934320	          0.14423226	          0.08505389	          0.05000081	          0.05000010	          0.05000008	          0.05000008	          0.08497962	          0.10958881	          0.05000027	          0.05000062	          0.05000046	          0.05000046	          0.29371851	          0.05000299	          0.05000030	          0.05000216	          0.05000125	          0.05000063	          0.35214066	          0.58752236	          0.05000013	          0.05000038	          0.05000015	          0.22409742	          0.07302912	          0.10292431	          0.10714676	          0.22661479	          0.31843650	          0.36424398	          0.22826868	          0.15881902	          0.22503450	          0.05000001	          0.13419010	          0.19212928	          0.05000009	          0.05000002	          0.05000010	          0.05000001	          0.05782172	          0.05000003	          0.21913939	          0.21055167	          0.22802224	          0.29547653	          0.19570342	          0.16423464	          0.15902686	          0.06846567	          0.09601647	          0.07653861	          0.05000031	          0.10153880	          0.23479255	          0.26184612	          0.18095850	          0.11858012	          0.05000016	          0.05968722	          0.11683650	          0.05000069	          0.12205520	          0.12068672	          0.05353617	          0.05245501	          0.42263846	          0.18928348	          0.17729391	          0.05000015	          0.09594982	          0.09775982	          0.08440827	          0.05000014	          0.05000438	          0.05000013	          0.05000015	          0.05000017	          0.05000026	          0.50124253	          0.30608981	          0.16679216	          0.29356792	          0.46981265	          0.14074795	          0.05217722	          0.13829185	          0.07330713	
          1.19728738	         -2.91661607	         -2.68885468	          6.98510495	          1.50580987	          0.91253848	         -0.00133078	        -15.67060454	         -2.72345010	          5.45724117	         28.02168185	          4.28303059	         -0.97717146	        -15.31259383	        -12.53958719	         -7.89828142	          2.61887940	         14.27372872	         -6.44822942	         12.29406107	         -0.42048158	         -0.60543845	         -0.70914273	         -1.06995679	          1.00497710	         -2.36953356	          3.71468504	        -13.47007042	         16.05984800	         -8.87551602	        -13.53976094	          4.90402722	         39.87910977	         16.85778036	         86.51662706	         86.51662706	          0.28416695	          0.06304042	          0.05000006	          0.28959160	          0.12082434	          0.07125021	          0.05000085	          0.05000007	          0.05000006	          0.05000007	          0.07121402	          0.10461853	          0.05000043	          0.05000034	          0.05000067	          0.05000034	          0.28392955	          0.05001877	          0.05000042	          0.05000107	          0.05000062	          0.05000035	          0.30322855	          0.55409356	          0.05000010	          0.05000046	          0.05000017	          0.18772787	          0.09167978	          0.09240841	          0.14468183	          0.18983664	          0.26675627	          0.30512949	          0.19122220	          0.13304382	          0.18851293	          0.05000000	          0.15178469	          0.19897280	          0.05000008	          0.05000003	          0.05000006	          0.06301946	          0.05000000	          0.05000001	          0.30671094	          0.30517944	          0.32288947	          0.24752263	          0.16394250	          0.16372215	          0.13321781	          0.07128563	          0.08043365	          0.06411696	          0.05000022	          0.08505971	          0.19668722	          0.21935021	          0.15159055	          0.14614267	          0.05000014	          0.05000065	          0.09787484	          0.19261037	          0.17591541	          0.14679953	          0.05000002	          0.05000002	          0.35404692	          0.15856399	          0.14852033	          0.05000002	          0.09700858	          0.11895881	          0.08929650	          0.05000000	          0.05000001	          0.05000000	          0.05000001	          0.05000004	          0.05000004	          0.56417853	          0.29379063	          0.16863334	          0.51390315	          0.50681549	          0.25639140	          0.07230300	          0.11584796	          0.06140985	
